<?xml version="1.0" encoding="UTF-8" standalone="no"?>
<!-- Created with Inkscape (http://www.inkscape.org/) -->

<svg
   xmlns:dc="http://purl.org/dc/elements/1.1/"
   xmlns:cc="http://creativecommons.org/ns#"
   xmlns:rdf="http://www.w3.org/1999/02/22-rdf-syntax-ns#"
   xmlns:svg="http://www.w3.org/2000/svg"
   xmlns="http://www.w3.org/2000/svg"
   xmlns:sodipodi="http://sodipodi.sourceforge.net/DTD/sodipodi-0.dtd"
   xmlns:inkscape="http://www.inkscape.org/namespaces/inkscape"
   version="1.1"
   id="svg851"
   width="874.1062"
   height="307.30521">
  <metadata
     id="metadata857">
    <rdf:RDF>
      <cc:Work
         rdf:about="">
        <dc:format>image/svg+xml</dc:format>
        <dc:type
           rdf:resource="http://purl.org/dc/dcmitype/StillImage" />
      </cc:Work>
    </rdf:RDF>
  </metadata>
  <defs
     id="defs855" />
  <sodipodi:namedview
     pagecolor="#ffffff"
     bordercolor="#666666"
     borderopacity="1"
     objecttolerance="10"
     gridtolerance="10"
     guidetolerance="10"
     inkscape:pageopacity="0"
     inkscape:pageshadow="2"
     inkscape:window-width="640"
     inkscape:window-height="480"
     id="namedview853" />
  <inkscape:clipboard
     style="font-variant-east_asian:normal;opacity:1;vector-effect:none;fill:none;fill-opacity:1;stroke:#010101;stroke-width:5.29493707;stroke-linecap:butt;stroke-linejoin:miter;stroke-miterlimit:4;stroke-dasharray:none;stroke-dashoffset:0;stroke-opacity:1;marker-start:none;marker-end:none"
     min="73.183136,413.27056"
     max="947.28931,720.57577" />
  <path
     inkscape:connector-curvature="0"
     id="path827"
     d="M 2.4074157,153.64664 C 23.104827,108.41336 43.802242,63.666855 64.499653,35.448524 85.197068,7.2301547 105.89448,-3.7895871 126.59189,6.2559815 147.28931,16.30155 167.98672,47.306678 188.68413,88.051648 c 20.69741,40.744932 41.39483,90.427462 62.09225,131.190012 20.6974,40.76258 41.39482,71.71053 62.09224,81.79567 20.69738,10.08514 41.39482,-1.00592 62.09224,-29.19255 20.69741,-28.18658 41.39482,-72.96483 62.09223,-118.19814"
     style="fill:none;fill-opacity:1;stroke:#010101;stroke-width:5.29493713;stroke-miterlimit:4;stroke-dasharray:none;stroke-dashoffset:0;stroke-opacity:1;marker-start:none;marker-end:none" />
  <path
     style="fill:none;fill-opacity:1;stroke:#010101;stroke-width:5.29493713;stroke-miterlimit:4;stroke-dasharray:none;stroke-dashoffset:0;stroke-opacity:1;marker-start:none;marker-end:none"
     d="M 437.05309,153.64664 C 457.7505,108.41336 478.44791,63.666855 499.14532,35.448524 519.84273,7.2301547 540.54018,-3.7895871 561.23756,6.2559815 581.93497,16.30155 602.63242,47.306678 623.32979,88.051648 c 20.69741,40.744932 41.39486,90.427462 62.09227,131.190012 20.69738,40.76258 41.39482,71.71053 62.09224,81.79567 20.69737,10.08514 41.39482,-1.00592 62.09223,-29.19255 20.69741,-28.18658 41.39482,-72.96483 62.09223,-118.19814"
     id="path849"
     inkscape:connector-curvature="0" />
</svg>